<?xml version="1.0" standalone="no"?>
<!DOCTYPE svg PUBLIC "-//W3C//DTD SVG 20010904//EN"
 "http://www.w3.org/TR/2001/REC-SVG-20010904/DTD/svg10.dtd">
<svg version="1.0" xmlns="http://www.w3.org/2000/svg"
 width="260.000000pt" height="260.000000pt" viewBox="0 0 260.000000 260.000000"
 preserveAspectRatio="xMidYMid meet">
<metadata>
Created by potrace 1.11, written by Peter Selinger 2001-2013
</metadata>
<g transform="translate(0.000000,260.000000) scale(0.100000,-0.100000)"
fill="#000000" stroke="none">
<path d="M1208 2494 c-2 -1 -32 -5 -68 -9 -36 -4 -68 -9 -71 -11 -3 -2 -19 -5
-35 -8 -118 -21 -326 -115 -441 -199 -137 -101 -267 -252 -351 -407 -28 -51
-69 -145 -78 -180 -2 -8 -11 -40 -19 -70 -8 -30 -17 -66 -20 -80 -2 -14 -7
-45 -11 -70 -9 -52 -10 -268 -2 -320 16 -102 22 -126 31 -138 5 -6 7 -12 4
-12 -9 0 50 -165 80 -225 84 -168 249 -355 403 -457 103 -68 260 -142 327
-154 6 -1 27 -7 45 -12 47 -15 132 -28 248 -37 25 -2 47 -4 50 -6 3 -1 8 -1
11 -1 3 1 26 4 50 7 24 3 64 7 89 10 186 22 351 83 516 194 84 56 222 181 272
246 122 162 210 358 237 530 4 22 10 60 14 85 7 46 6 189 -2 270 -33 315 -210
621 -474 818 -89 68 -263 160 -333 177 -8 3 -40 11 -70 19 -111 30 -159 37
-292 40 -60 2 -109 2 -110 0z m190 -58 c67 -5 107 -13 217 -40 82 -20 231 -89
308 -143 26 -18 49 -33 51 -33 13 0 163 -143 210 -200 95 -116 206 -337 222
-445 2 -11 8 -38 13 -60 8 -34 24 -168 24 -200 -6 -495 -291 -908 -749 -1085
-41 -15 -74 -27 -74 -25 0 2 -19 -2 -42 -11 -22 -8 -43 -12 -46 -9 -2 2 -12 0
-21 -4 -19 -10 -144 -24 -216 -24 -50 0 -116 7 -190 19 -63 10 -67 11 -130 30
-33 10 -62 19 -65 19 -67 18 -212 99 -306 171 -410 311 -558 870 -356 1344
107 253 296 456 540 579 71 36 219 88 278 97 21 3 42 8 46 10 4 3 49 7 100 10
51 3 95 8 97 10 2 2 7 2 10 -1 4 -2 39 -6 79 -9z"/>
<path d="M1193 2367 c-3 -4 -1 -20 3 -35 4 -15 6 -35 5 -44 -4 -36 18 -58 58
-58 45 0 58 13 65 61 3 19 7 44 10 56 5 24 -19 38 -47 27 -11 -4 -14 -12 -8
-27 11 -33 8 -70 -7 -75 -10 -3 -13 7 -12 39 1 24 1 49 1 55 -1 13 -60 14 -68
1z"/>
<path d="M1361 2358 c-10 -28 -4 -48 16 -48 8 0 11 5 7 12 -4 7 -3 8 4 4 16
-10 15 -25 -3 -60 -18 -35 -8 -46 43 -46 32 0 32 1 29 38 -6 50 2 68 18 45 13
-17 14 -16 25 11 13 36 6 44 -45 51 -22 3 -50 8 -63 11 -17 3 -25 -1 -31 -18z"/>
<path d="M1129 2365 c-3 -2 -23 -7 -45 -10 -69 -11 -75 -14 -72 -43 2 -17 10
-28 22 -30 15 -3 17 0 12 14 -6 15 -5 17 6 6 7 -7 12 -32 11 -56 -1 -36 1 -43
15 -41 9 2 24 4 32 4 28 2 45 18 33 33 -17 21 -33 78 -22 78 5 0 9 -4 9 -10 0
-5 7 -10 15 -10 12 0 14 7 11 28 -2 15 -5 30 -5 35 -1 8 -15 10 -22 2z"/>
<path d="M1529 2338 c-1 -7 -1 -17 0 -21 1 -4 4 -24 6 -45 10 -68 15 -80 35
-85 21 -5 34 4 60 43 8 13 23 31 34 41 10 10 16 24 13 32 -7 18 -57 29 -58 13
-3 -49 -29 -89 -29 -45 0 14 5 30 12 37 16 16 2 28 -39 37 -24 5 -33 3 -34 -7z"/>
<path d="M925 2313 c-25 -6 -55 -32 -55 -48 0 -21 25 -44 54 -49 16 -3 31 -8
35 -11 3 -3 -7 -4 -22 -1 -34 6 -48 -18 -25 -41 12 -11 20 -12 34 -5 11 6 27
13 36 16 10 3 20 17 24 31 8 32 -10 53 -51 61 -34 6 -50 17 -20 14 36 -4 43 0
38 20 -5 20 -11 22 -48 13z"/>
<path d="M1721 2277 c-6 -6 -11 -16 -11 -23 0 -7 -17 -25 -37 -42 -32 -26 -36
-32 -24 -46 19 -22 49 -20 53 4 2 14 7 17 17 11 12 -8 13 -12 1 -26 -11 -13
-10 -18 6 -30 18 -13 38 -19 57 -16 4 0 7 -5 7 -11 0 -7 24 -27 53 -45 51 -31
52 -32 71 -13 16 16 17 21 6 35 -9 10 -16 12 -25 5 -12 -10 -25 -4 -25 12 0 4
14 21 30 36 17 16 30 33 30 38 0 5 -15 19 -32 31 l-32 23 -23 -49 c-22 -45
-47 -61 -56 -36 -4 10 7 48 27 95 8 20 -77 63 -93 47z"/>
<path d="M791 2249 l-34 -20 26 -27 c27 -30 44 -72 29 -72 -6 0 -12 6 -15 13
-3 9 -7 9 -20 -2 -9 -7 -15 -17 -12 -21 3 -4 -2 -10 -10 -14 -18 -7 -40 28
-44 69 -2 22 -22 18 -56 -10 l-29 -24 31 -31 c17 -16 33 -41 35 -54 l5 -25
-41 17 c-23 9 -49 25 -58 37 -17 20 -17 20 -55 -18 -33 -33 -36 -40 -22 -50
23 -18 52 -65 45 -75 -3 -6 1 -15 10 -23 13 -10 19 -9 37 10 22 22 22 22 3 37
-15 10 -17 17 -9 25 8 8 14 5 23 -11 l12 -22 36 34 c21 20 60 50 87 68 28 19
52 37 53 42 2 4 9 8 15 8 7 0 27 9 45 20 l32 20 -29 31 c-17 17 -31 42 -33 57
-4 34 -16 36 -57 11z"/>
<path d="M1960 2061 c-34 -33 -36 -50 -16 -90 21 -40 57 -53 104 -37 28 9 28
26 -2 48 -21 15 -26 16 -36 3 -20 -24 -31 -6 -13 20 22 29 53 33 53 6 0 -28
26 -47 45 -31 22 18 18 31 -18 66 -48 47 -81 51 -117 15z"/>
<path d="M1265 2044 c-22 -22 -55 -90 -48 -98 4 -3 1 -6 -5 -6 -7 0 -11 -3
-10 -7 1 -5 -5 -39 -15 -78 -24 -98 -28 -121 -33 -195 -3 -36 -7 -85 -9 -110
-5 -57 -6 -266 -2 -342 1 -32 -1 -58 -5 -58 -5 0 -8 12 -8 26 0 23 -3 25 -34
21 -19 -2 -38 -7 -43 -10 -4 -3 -28 -8 -53 -12 -25 -4 -48 -9 -52 -11 -28 -17
-194 -22 -210 -6 -15 15 43 77 99 107 21 11 40 22 43 25 14 14 92 51 98 46 3
-3 -1 -6 -8 -6 -12 0 -12 -3 0 -14 20 -20 147 -76 154 -69 17 18 -1 37 -66 67
l-72 34 37 16 c20 9 53 23 72 31 23 10 35 22 35 35 0 25 4 25 -66 -6 -297
-128 -457 -248 -437 -325 9 -35 108 -50 218 -34 119 18 263 52 279 67 14 12
23 10 23 -4 2 -50 13 -152 18 -156 3 -3 20 9 39 27 33 32 33 34 28 94 -9 88
-8 468 0 552 24 239 81 360 123 259 8 -20 17 -47 19 -60 3 -13 7 -27 9 -31 6
-10 18 -110 22 -180 4 -63 11 -79 31 -62 9 7 12 23 8 48 -4 20 -8 50 -10 66
-6 58 -21 160 -24 160 -2 0 -4 13 -13 65 -7 39 -36 103 -59 127 -25 27 -50 29
-73 7z"/>
<path d="M444 1957 c-36 -42 -56 -79 -50 -93 3 -9 10 -13 15 -9 11 6 81 -52
81 -67 0 -7 -5 -6 -13 1 -10 8 -17 7 -26 -2 -10 -9 -16 -8 -29 8 -16 19 -24
21 -59 17 -7 -1 -26 -29 -43 -61 -31 -63 -28 -76 19 -79 13 0 33 -10 45 -21
30 -29 40 -26 59 13 17 37 14 46 -15 46 -10 0 -18 4 -18 10 0 5 10 9 23 8 36
-1 47 1 47 13 0 12 54 93 82 123 22 24 22 30 3 46 -18 15 -49 5 -42 -14 3 -8
-1 -17 -9 -20 -9 -3 -12 -2 -9 5 4 5 1 16 -5 25 -10 11 -16 12 -26 3 -8 -6
-14 -8 -14 -4 0 4 12 16 26 28 25 19 26 21 8 34 -24 17 -27 17 -50 -10z m-69
-218 c-10 -15 -25 -10 -19 6 4 8 10 12 15 9 5 -3 7 -10 4 -15z"/>
<path d="M2115 1941 c-3 -11 -24 -26 -45 -35 -22 -9 -40 -18 -40 -22 0 -3 16
-30 36 -60 37 -55 49 -61 68 -32 8 13 4 21 -15 37 -13 11 -18 20 -11 21 6 0
12 -5 12 -10 0 -6 9 -5 21 2 18 11 23 10 32 -4 9 -14 13 -14 33 -1 l22 14 -36
54 c-38 56 -66 69 -77 36z m50 -71 c3 -5 2 -10 -4 -10 -5 0 -13 5 -16 10 -3 6
-2 10 4 10 5 0 13 -4 16 -10z"/>
<path d="M2202 1798 c-9 -9 -9 -15 0 -26 14 -17 -7 -35 -35 -28 -26 6 -36 -24
-21 -61 10 -24 18 -30 34 -26 11 3 18 8 16 12 -3 4 9 14 26 24 22 13 29 14 25
4 -3 -8 -1 -20 3 -27 7 -11 13 -10 34 3 l25 17 -27 60 c-28 61 -52 76 -80 48z"/>
<path d="M688 1630 c-99 -28 -79 -96 54 -186 106 -72 141 -89 163 -77 15 9 10
14 -37 41 -30 17 -64 39 -75 49 -12 10 -31 26 -42 35 -23 20 -27 43 -9 54 24
15 130 4 250 -25 69 -17 128 -31 131 -31 13 0 7 80 -5 81 -16 1 -28 3 -100 23
-126 34 -277 50 -330 36z"/>
<path d="M1827 1634 c-1 -1 -34 -5 -72 -8 -39 -3 -85 -10 -103 -15 -18 -5 -35
-10 -37 -10 -3 -1 -6 -1 -7 -2 -2 0 -14 -2 -28 -4 -45 -8 -55 -10 -67 -18 -7
-5 -13 -6 -13 -3 0 2 -15 0 -32 -5 -18 -6 -43 -12 -54 -15 -12 -2 -36 -10 -54
-18 -31 -13 -32 -14 -13 -24 20 -11 53 -9 74 4 7 4 9 0 5 -14 -8 -25 19 -38
29 -14 3 9 1 18 -4 20 -6 2 -11 9 -11 14 0 6 3 9 6 5 3 -3 17 -2 31 4 13 5 37
11 53 14 16 3 68 14 117 26 176 42 256 14 167 -59 -52 -43 -234 -136 -234
-120 0 8 -12 19 -27 25 -16 6 -85 34 -156 62 -70 28 -134 51 -142 51 -15 0
-19 -16 -15 -55 2 -24 4 -26 22 -29 7 -1 18 -4 23 -7 6 -4 33 -14 60 -23 56
-19 107 -45 88 -46 -7 0 -13 -9 -13 -21 0 -14 5 -19 18 -17 11 3 16 12 15 26
-3 22 -2 22 19 8 15 -11 26 -12 40 -5 10 5 18 7 18 4 0 -6 -85 -45 -105 -48
-5 -1 -12 -5 -15 -8 -3 -3 -34 -16 -70 -29 -36 -13 -70 -27 -76 -32 -6 -4 -14
-5 -17 -1 -7 6 -9 -3 -9 -32 0 -63 3 -65 64 -35 23 11 45 20 49 20 24 0 312
132 405 186 207 119 267 200 176 235 -22 9 -99 18 -105 13z"/>
<path d="M1662 1318 l-32 -20 84 -53 c87 -54 136 -96 136 -115 0 -24 -65 -32
-145 -16 -16 3 -43 8 -59 11 -16 3 -56 13 -90 21 -34 9 -73 18 -89 21 -15 3
-30 9 -33 14 -3 5 0 8 8 7 7 -2 13 3 13 10 0 6 -3 12 -7 12 -5 0 -15 0 -24 0
-9 0 -14 -6 -11 -13 3 -9 -4 -12 -27 -9 -18 2 -39 -3 -51 -13 -11 -9 -15 -14
-8 -11 6 4 22 2 35 -3 27 -11 152 -48 188 -56 14 -2 48 -9 75 -15 28 -6 65
-13 84 -16 18 -3 43 -8 55 -10 26 -5 116 -6 136 -1 44 10 59 21 69 48 10 29 8
33 -37 78 -47 46 -179 134 -217 144 -11 3 -35 -4 -53 -15z"/>
<path d="M1409 1118 c0 -7 -2 -41 -4 -75 -3 -45 0 -65 11 -73 7 -7 14 -11 15
-9 18 87 20 152 7 160 -19 12 -28 11 -29 -3z"/>
<path d="M985 821 c-11 -11 -4 -71 8 -71 19 0 19 -147 0 -154 -7 -3 -13 -20
-13 -39 l0 -33 82 1 82 0 3 31 c2 19 -2 36 -12 44 -19 16 -19 36 -1 43 17 7
26 -3 56 -63 12 -25 24 -47 27 -50 2 -3 28 -6 58 -6 49 -2 53 0 58 22 3 16 -6
37 -26 65 l-30 41 20 36 c30 55 10 108 -47 127 -27 9 -257 14 -265 6z m197
-79 c15 -15 -2 -38 -31 -40 -25 -2 -28 1 -25 25 1 16 2 29 3 30 2 5 45 -7 53
-15z"/>
<path d="M1340 814 c0 -7 -3 -19 -6 -27 -3 -8 2 -21 11 -30 10 -11 16 -40 19
-94 3 -89 17 -119 61 -132 42 -14 88 -17 103 -8 6 5 12 5 12 2 0 -4 13 3 29
14 32 23 42 54 46 141 1 30 6 64 11 75 9 18 10 27 6 61 -2 11 -90 12 -108 1
-12 -7 -10 -57 2 -65 15 -10 11 -139 -4 -154 -34 -33 -47 52 -29 180 3 18 0
35 -7 39 -20 13 -146 10 -146 -3z"/>
</g>
</svg>
